<svg width="141" height="103" viewBox="0 0 141 103" fill="none" xmlns="http://www.w3.org/2000/svg">
<path d="M3.55765 71.4015C3.55765 71.4015 43.0229 99.6146 45.4222 101.021C47.7389 102.428 51.1311 102.759 54.1096 101.6C57.0881 100.442 59.3219 97.7944 59.9838 95.1468C60.7285 92.4993 69.7467 44.8431 69.7467 44.8431C69.8295 44.1812 70.0777 42.2783 69.0848 40.4581C67.6783 37.976 64.5343 36.6522 61.7213 37.4796C59.4874 38.1415 58.3291 39.7962 57.9982 40.3753C57.5018 41.2854 56.5917 42.7747 54.9369 44.0985C53.6959 45.0913 52.4548 45.6705 51.8757 45.9187C46.8288 47.9871 41.2027 46.2496 37.976 42.1128C35.9903 39.548 32.4326 38.5551 29.2887 39.7962C26.1447 41.0372 24.3245 44.264 24.5727 47.4907C25.1518 52.6203 22.2561 57.75 17.1264 59.8184C14.3961 60.894 11.5003 60.894 8.93551 60.0666C8.35636 59.9011 6.28795 59.4047 4.21954 60.563C1.65471 61.8868 0.330932 65.0308 0.992823 67.8438C1.48924 69.7468 2.9785 70.9878 3.55765 71.4015Z" fill="#FF9538"/>
<path d="M69.3329 9.59742C69.3329 9.59742 83.3981 56.0953 84.3909 58.5773C85.3837 61.1422 87.8658 63.4588 90.9271 64.3689C93.9883 65.279 97.3805 64.5344 99.5317 62.8796C101.683 61.2249 138.004 29.0405 138.004 29.0405C138.5 28.6268 139.824 27.2203 140.155 25.1519C140.569 22.3388 138.831 19.3603 136.184 18.2847C134.033 17.4574 132.047 18.0365 131.468 18.2847C130.558 18.6984 128.903 19.2776 126.835 19.3603C125.18 19.443 123.939 19.1121 123.277 18.9466C118.065 17.4574 114.59 12.6587 114.59 7.44627C114.507 4.21956 112.356 1.24105 109.129 0.330947C105.82 -0.579153 102.427 0.827365 100.69 3.55767C97.9597 8.02543 92.5818 10.2593 87.2867 8.77006C84.4736 7.94269 82.157 6.20523 80.6678 3.97135C80.2541 3.47493 78.9303 1.8202 76.6137 1.40652C73.8007 0.910102 70.7394 2.56483 69.5811 5.12966C68.671 7.11533 69.1674 8.93553 69.3329 9.59742Z" fill="#FF9538"/>
</svg>
